<svg width="6403" height="4661" viewBox="0 0 6403 4661" fill="none" xmlns="http://www.w3.org/2000/svg">
<path d="M1704.74 2576.06C1569.5 2576.06 1446.56 2553.48 1336.31 2508.13C1225.66 2462.79 1131.34 2400.11 1053.14 2320.09C974.738 2240.28 914.273 2146.16 871.345 2038.33C828.415 1930.3 807.051 1812.8 807.051 1685.82V1680.99C807.051 1560.66 829.02 1445.98 873.159 1337.15C917.096 1228.31 978.971 1133.18 1058.58 1051.55C1138.19 969.927 1232.72 905.231 1342.36 857.465C1452 809.698 1571.92 785.713 1702.12 785.713C1778.1 785.713 1846.83 791.155 1908.71 801.837C1970.58 812.519 2027.82 827.837 2080.63 847.589C2133.23 867.34 2183.21 891.727 2230.17 920.549C2277.13 949.37 2322.88 982.827 2367.43 1020.72L2174.55 1250.68C2141.49 1222.67 2107.83 1197.07 2073.17 1174.09C2038.5 1150.92 2002.22 1131.57 1964.33 1115.85C1926.44 1100.33 1884.72 1087.83 1839.37 1078.76C1794.03 1069.69 1744.24 1065.26 1689.83 1065.26C1610.62 1065.26 1536.85 1081.79 1468.53 1114.84C1400 1147.89 1340.75 1192.03 1290.56 1247.26C1240.17 1302.68 1200.67 1367.58 1171.85 1441.75C1142.83 1516.12 1128.52 1594.52 1128.52 1677.16V1682.19C1128.52 1771.48 1142.42 1853.91 1170.44 1929.9C1198.45 2005.88 1238.36 2071.18 1290.16 2125.6C1341.96 2180.22 1403.43 2223.15 1475.18 2254.59C1546.53 2285.83 1626.74 2301.55 1715.62 2301.55C1797.86 2301.55 1874.65 2289.66 1946.19 2265.47C2017.74 2241.49 2079.82 2209.64 2132.42 2169.94V1844.24H1689.83V1579.61H2426.68V2306.59C2383.95 2342.87 2336.39 2377.53 2284.59 2410.38C2232.59 2443.44 2176.56 2472.26 2116.5 2497.05C2056.24 2521.64 1991.54 2541.19 1922.21 2555.09C1853.08 2569 1780.52 2576.06 1704.74 2576.06Z" fill="#383838"/>
<path d="M2822.32 815.344H3146.41L3673.05 1634.03L4199.69 815.344H4523.78V2546.43H4222.06V1305.1L3675.47 2121.17H3665.59L3124.03 1309.94V2546.43H2822.32L2822.32 815.344Z" fill="#383838"/>
<path d="M4968.79 815.344H5270.51V1535.07H6101.48V815.344H6403V2546.43H6101.48V1817.03H5270.51V2546.43H4968.79V815.344Z" fill="#383838"/>
<path d="M2065.44 2911.67H2418.61V2987.34H2148.6V3110.08H2387.94V3185.75H2148.6V3313.27H2422.01V3388.94H2065.44V2911.67Z" fill="#383838"/>
<path d="M2636.44 3396.45C2595.63 3396.45 2564.12 3383.95 2541.92 3358.95C2519.7 3333.94 2508.61 3300.29 2508.61 3258.02V3028.95H2591.78V3233.01C2591.78 3261.13 2598.42 3282.76 2611.72 3297.98C2625.01 3313.15 2643.82 3320.74 2668.17 3320.74C2692.05 3320.74 2711.43 3312.93 2726.29 3297.28C2741.18 3281.66 2748.6 3259.77 2748.6 3231.65V3028.95H2831.79V3388.94H2748.6V3332.44C2736.82 3349.89 2722.1 3364.89 2704.43 3377.5C2686.74 3390.15 2664.08 3396.45 2636.44 3396.45Z" fill="#383838"/>
<path d="M2935.44 3028.95H3018.62V3110.08C3029.97 3082.81 3046.12 3060.99 3067.02 3044.6C3087.93 3028.25 3114.29 3020.74 3146.12 3022.13V3109.39H3141.35C3123.17 3109.39 3106.57 3112.36 3091.56 3118.26C3076.57 3124.16 3063.61 3133.03 3052.7 3144.84C3041.79 3156.68 3033.38 3171.57 3027.48 3189.49C3021.57 3207.46 3018.62 3228.25 3018.62 3251.89V3388.94H2935.43L2935.44 3028.95Z" fill="#383838"/>
<path d="M3388.14 3397.11C3360.87 3397.11 3335.53 3392.24 3312.14 3382.45C3288.72 3372.7 3268.51 3359.39 3251.47 3342.56C3234.42 3325.77 3221.11 3306.01 3211.58 3283.24C3202.05 3260.55 3197.24 3236.46 3197.24 3210.98V3209.62C3197.24 3183.7 3202.12 3159.4 3211.91 3136.66C3221.66 3113.93 3235.08 3094.06 3252.13 3077.01C3269.18 3059.97 3289.41 3046.44 3312.8 3036.43C3336.23 3026.46 3361.78 3021.43 3389.54 3021.43C3417.25 3021.43 3442.81 3026.31 3466.24 3036.1C3489.63 3045.89 3509.86 3059.27 3526.91 3076.32C3543.96 3093.37 3557.27 3113.13 3566.8 3135.64C3576.33 3158.15 3581.1 3182.35 3581.1 3208.27V3209.62C3581.1 3235.07 3576.22 3259.15 3566.47 3281.88C3556.68 3304.62 3543.26 3324.52 3526.22 3341.54C3509.17 3358.58 3488.82 3372.11 3465.21 3382.12C3441.56 3392.13 3415.86 3397.11 3388.14 3397.11ZM3389.54 3325.51C3406.22 3325.51 3421.25 3322.47 3434.56 3316.31C3447.9 3310.19 3459.31 3301.9 3468.8 3291.45C3478.26 3281 3485.52 3268.83 3490.47 3254.97C3495.46 3241.12 3497.95 3226.45 3497.95 3210.98V3209.62C3497.95 3193.71 3495.2 3178.72 3489.81 3164.6C3484.38 3150.52 3476.83 3138.28 3467.11 3127.79C3457.4 3117.34 3445.85 3109.06 3432.54 3102.9C3419.2 3096.78 3404.42 3093.7 3388.18 3093.7C3371.9 3093.7 3357.09 3096.78 3343.78 3102.9C3330.44 3109.06 3319.04 3117.23 3309.54 3127.46C3300.08 3137.69 3292.82 3149.86 3287.87 3163.94C3282.92 3178.02 3280.43 3192.8 3280.43 3208.27V3209.62C3280.43 3225.54 3283.14 3240.42 3288.57 3254.28C3293.96 3268.14 3301.55 3280.42 3311.26 3291.09C3320.98 3301.79 3332.49 3310.19 3345.8 3316.31C3359.14 3322.47 3373.7 3325.51 3389.54 3325.51Z" fill="#383838"/>
<path d="M3664.95 3028.95H3748.13V3088.93C3761.29 3069.83 3777.61 3053.81 3797.11 3040.87C3816.62 3027.92 3840.89 3021.43 3869.89 3021.43C3891.23 3021.43 3911.83 3025.54 3931.81 3033.72C3951.76 3041.89 3969.57 3053.95 3985.19 3069.83C4000.85 3085.78 4013.42 3105.28 4022.95 3128.49C4032.49 3151.66 4037.25 3178.24 4037.25 3208.27V3209.62C4037.25 3239.61 4032.6 3266.19 4023.29 3289.4C4014.01 3312.57 4001.51 3332.11 3985.89 3348.02C3970.23 3363.94 3952.31 3376 3932.14 3384.17C3911.98 3392.35 3891.23 3396.46 3869.89 3396.46C3840.41 3396.46 3815.92 3390.08 3796.45 3377.35C3776.95 3364.63 3760.85 3349.86 3748.13 3333.03V3498.05H3664.95L3664.95 3028.95ZM3851.08 3324.85C3865.2 3324.85 3878.47 3322.1 3890.97 3316.68C3903.47 3311.22 3914.4 3303.59 3923.71 3293.84C3933.02 3284.05 3940.43 3272.02 3945.89 3257.69C3951.32 3243.35 3954.07 3227.33 3954.07 3209.62V3208.27C3954.07 3191 3951.32 3175.2 3945.89 3160.86C3940.43 3146.56 3933.02 3134.39 3923.71 3124.38C3914.4 3114.41 3903.47 3106.67 3890.97 3101.21C3878.47 3095.75 3865.2 3093.04 3851.08 3093.04C3837 3093.04 3823.58 3095.75 3810.86 3101.21C3798.14 3106.68 3786.99 3114.52 3777.46 3124.75C3767.93 3134.94 3760.3 3147.11 3754.62 3161.19C3748.94 3175.31 3746.08 3191 3746.08 3208.27V3209.62C3746.08 3226.89 3748.94 3242.69 3754.62 3256.99C3760.3 3271.33 3767.93 3283.5 3777.46 3293.47C3786.99 3303.48 3798.14 3311.22 3810.86 3316.68C3823.58 3322.1 3837 3324.85 3851.08 3324.85Z" fill="#383838"/>
<path d="M4286.78 3397.12C4260.86 3397.12 4236.66 3392.57 4214.15 3383.48C4191.67 3374.38 4172.1 3361.66 4155.53 3345.31C4138.92 3328.92 4125.87 3309.27 4116.33 3286.32C4106.77 3263.37 4102 3238.04 4102 3210.28V3208.93C4102 3183.04 4106.33 3158.7 4114.94 3135.97C4123.59 3113.27 4135.77 3093.37 4151.42 3076.32C4167.11 3059.27 4185.63 3045.89 4207 3036.1C4228.38 3026.31 4252.02 3021.43 4277.91 3021.43C4306.54 3021.43 4331.65 3026.68 4353.25 3037.13C4374.84 3047.58 4392.81 3061.65 4407.11 3079.4C4421.44 3097.11 4432.22 3117.67 4439.52 3141.1C4446.77 3164.53 4450.4 3189.16 4450.4 3215.09C4450.4 3218.71 4450.29 3222.46 4450.07 3226.34C4449.85 3230.19 4449.49 3234.15 4449.05 3238.26H4184.49C4189.04 3267.81 4200.77 3290.43 4219.61 3306.08C4238.46 3321.77 4261.3 3329.62 4288.14 3329.62C4308.59 3329.62 4326.34 3325.99 4341.33 3318.69C4356.33 3311.43 4371.1 3300.77 4385.66 3286.65L4434.05 3329.62C4416.78 3350.08 4396.22 3366.43 4372.35 3378.71C4348.48 3390.99 4319.96 3397.12 4286.78 3397.12ZM4368.61 3183.7C4367.22 3170.54 4364.28 3158.15 4359.74 3146.56C4355.19 3134.94 4349.03 3124.97 4341.33 3116.54C4333.6 3108.14 4324.39 3101.43 4313.73 3096.45C4303.02 3091.42 4290.89 3088.93 4277.25 3088.93C4251.77 3088.93 4230.76 3097.69 4214.15 3115.18C4197.58 3132.71 4187.46 3155.55 4183.83 3183.7H4368.61Z" fill="#383838"/>
<path d="M4753.82 3388.94V3344.61C4741.58 3359.17 4725.88 3371.45 4706.78 3381.42C4687.68 3391.43 4664.51 3396.45 4637.23 3396.45C4619.97 3396.45 4603.61 3394.03 4588.14 3389.27C4572.71 3384.5 4559.18 3377.46 4547.59 3368.15C4535.97 3358.84 4526.66 3347.25 4519.62 3333.36C4512.58 3319.5 4509.06 3303.48 4509.06 3285.29V3283.94C4509.06 3263.95 4512.69 3246.54 4519.95 3231.76C4527.25 3217.03 4537.37 3204.74 4550.31 3194.96C4563.25 3185.2 4578.72 3177.91 4596.68 3173.14C4614.61 3168.37 4634.04 3165.99 4654.98 3165.99C4676.79 3165.99 4695.31 3167.35 4710.52 3170.06C4725.77 3172.81 4740.44 3176.44 4754.52 3180.99V3174.17C4754.52 3149.16 4746.89 3130.06 4731.67 3116.9C4716.42 3103.7 4694.5 3097.1 4665.87 3097.1C4645.41 3097.1 4627.22 3099.16 4611.35 3103.26C4595.4 3107.33 4579.27 3112.79 4562.92 3119.61L4540.41 3053.47C4560.42 3044.38 4580.88 3037.12 4601.78 3031.66C4622.68 3026.2 4647.9 3023.48 4677.45 3023.48C4731.09 3023.48 4770.87 3036.76 4796.79 3063.37C4822.71 3089.95 4835.65 3127.35 4835.65 3175.52V3388.93L4753.82 3388.94ZM4755.87 3238.25C4745.42 3234.15 4733.03 3230.74 4718.73 3228.02C4704.4 3225.31 4689.3 3223.92 4673.38 3223.92C4647.46 3223.92 4627.22 3228.94 4612.71 3238.95C4598.15 3248.92 4590.89 3262.56 4590.89 3279.83V3281.22C4590.89 3298.49 4597.56 3311.65 4610.98 3320.74C4624.4 3329.84 4640.86 3334.38 4660.44 3334.38C4674.04 3334.38 4686.69 3332.59 4698.28 3328.92C4709.86 3325.29 4719.98 3320.19 4728.6 3313.6C4737.25 3307 4743.96 3299.04 4748.73 3289.73C4753.49 3280.42 4755.87 3270.08 4755.87 3258.71L4755.87 3238.25Z" fill="#383838"/>
<path d="M4933.8 3028.95H5016.98V3085.41C5022.89 3076.72 5029.34 3068.58 5036.38 3060.99C5043.38 3053.44 5051.56 3046.66 5060.83 3040.72C5070.14 3034.74 5080.34 3030.05 5091.45 3026.6C5102.55 3023.16 5115.13 3021.43 5129.17 3021.43C5169.98 3021.43 5201.47 3033.94 5223.69 3058.94C5245.87 3083.94 5257.01 3117.56 5257.01 3159.83V3388.94H5173.83V3184.88C5173.83 3156.76 5167.15 3135.09 5153.88 3119.91C5140.57 3104.7 5121.77 3097.11 5097.42 3097.11C5073.56 3097.11 5054.16 3104.95 5039.31 3120.57C5024.43 3136.23 5016.99 3158.11 5016.99 3186.23V3388.94H4933.8L4933.8 3028.95Z" fill="#383838"/>
<path d="M2287.7 4022.14C2252.69 4022.14 2220.43 4015.76 2190.88 4003.04C2161.33 3990.31 2135.7 3972.94 2113.98 3950.9C2092.25 3928.87 2075.21 3902.84 2062.83 3872.81C2050.48 3842.82 2044.28 3810.78 2044.28 3776.68V3775.33C2044.28 3741.23 2050.35 3709.3 2062.5 3679.53C2074.64 3649.76 2091.69 3623.62 2113.63 3601.11C2135.59 3578.63 2161.56 3560.89 2191.57 3547.95C2221.56 3534.97 2254.74 3528.51 2291.11 3528.51C2312.93 3528.51 2332.82 3530.31 2350.78 3533.94C2368.73 3537.61 2385.21 3542.7 2400.2 3549.3C2415.2 3555.9 2429.07 3563.75 2441.79 3572.8C2454.52 3581.93 2466.56 3591.9 2477.93 3602.83L2424.07 3664.86C2404.99 3647.15 2384.75 3632.82 2363.39 3621.89C2342.02 3611 2317.71 3605.54 2290.43 3605.54C2267.7 3605.54 2246.68 3609.98 2227.36 3618.85C2208.03 3627.72 2191.33 3639.75 2177.24 3654.96C2163.16 3670.21 2152.23 3688.03 2144.52 3708.49C2136.78 3728.95 2132.93 3750.76 2132.93 3773.97V3775.33C2132.93 3798.5 2136.78 3820.46 2144.52 3841.14C2152.23 3861.81 2163.16 3879.89 2177.24 3895.32C2191.33 3910.79 2208.03 3922.93 2227.36 3931.8C2246.68 3940.67 2267.7 3945.11 2290.43 3945.11C2319.51 3945.11 2344.51 3939.54 2365.43 3928.39C2386.34 3917.25 2407.02 3902.14 2427.48 3883.04L2481.34 3937.59C2469.07 3950.79 2456.22 3962.49 2442.82 3972.72C2429.4 3982.95 2414.98 3991.82 2399.52 3999.3C2384.07 4006.81 2367.13 4012.5 2348.73 4016.35C2330.32 4020.2 2309.97 4022.14 2287.7 4022.14Z" fill="#383838"/>
<path d="M2730.2 4022.14C2702.92 4022.14 2677.57 4017.26 2654.16 4007.47C2630.75 3997.72 2610.53 3984.41 2593.48 3967.58C2576.44 3950.79 2563.15 3931.03 2553.6 3908.26C2544.06 3885.57 2539.28 3861.48 2539.28 3836V3834.65C2539.28 3808.72 2544.15 3784.42 2553.94 3761.69C2563.71 3738.96 2577.11 3719.09 2594.16 3702.04C2611.21 3684.99 2631.43 3671.46 2654.86 3661.45C2678.27 3651.48 2703.82 3646.46 2731.56 3646.46C2759.27 3646.46 2784.84 3651.33 2808.27 3661.12C2831.66 3670.91 2851.9 3684.29 2868.95 3701.34C2886 3718.39 2899.29 3738.15 2908.84 3760.66C2918.37 3783.17 2923.15 3807.37 2923.15 3833.29V3834.65C2923.15 3860.09 2918.26 3884.18 2908.49 3906.91C2898.72 3929.64 2885.32 3949.55 2868.27 3966.56C2851.22 3983.61 2830.87 3997.13 2807.24 4007.14C2783.6 4017.15 2757.91 4022.14 2730.2 4022.14ZM2731.56 3950.54C2748.25 3950.54 2763.29 3947.49 2776.61 3941.33C2789.94 3935.21 2801.34 3926.92 2810.84 3916.48C2820.32 3906.03 2827.54 3893.86 2832.51 3880C2837.47 3866.14 2839.97 3851.47 2839.97 3836V3834.65C2839.97 3818.73 2837.25 3803.74 2831.85 3789.62C2826.42 3775.55 2818.85 3763.3 2809.13 3752.82C2799.42 3742.37 2787.91 3734.08 2774.58 3727.92C2761.25 3721.8 2746.46 3718.72 2730.2 3718.72C2713.94 3718.72 2699.15 3721.8 2685.82 3727.92C2672.49 3734.08 2661.07 3742.26 2651.59 3752.49C2642.12 3762.71 2634.88 3774.89 2629.91 3788.97C2624.94 3803.04 2622.47 3817.82 2622.47 3833.29V3834.65C2622.47 3850.56 2625.18 3865.44 2630.59 3879.3C2636.01 3893.16 2643.56 3905.44 2653.28 3916.11C2663 3926.82 2674.53 3935.21 2687.85 3941.33C2701.18 3947.49 2715.75 3950.54 2731.56 3950.54Z" fill="#383838"/>
<path d="M3007.02 3653.97H3090.21V3710.43C3096.09 3701.74 3102.54 3693.61 3109.58 3686.02C3116.6 3678.46 3124.76 3671.68 3134.05 3665.74C3143.33 3659.77 3153.54 3655.07 3164.65 3651.63C3175.74 3648.18 3188.33 3646.46 3202.37 3646.46C3243.18 3646.46 3274.67 3658.96 3296.89 3683.96C3319.07 3708.97 3330.22 3742.59 3330.22 3784.86V4013.96H3247.03V3809.9C3247.03 3781.78 3240.36 3760.11 3227.09 3744.93C3213.78 3729.72 3194.97 3722.13 3170.63 3722.13C3146.74 3722.13 3127.38 3729.97 3112.52 3745.59C3097.63 3761.25 3090.21 3783.14 3090.21 3811.26V4013.96H3007.02L3007.02 3653.97Z" fill="#383838"/>
<path d="M3553.16 4020.78C3527.24 4020.78 3500.99 4016.16 3474.41 4006.99C3447.79 3997.83 3423.16 3984.26 3400.42 3966.34L3437.23 3910.31C3456.77 3924.87 3476.65 3935.91 3496.88 3943.38C3517.12 3950.9 3536.55 3954.64 3555.18 3954.64C3572.92 3954.64 3586.67 3951.12 3596.42 3944.08C3606.21 3937.08 3611.09 3927.66 3611.09 3915.85V3914.49C3611.09 3907.71 3608.92 3901.81 3604.63 3896.82C3600.31 3891.84 3594.41 3887.51 3586.89 3883.88C3579.41 3880.25 3570.76 3876.84 3560.97 3873.69C3551.22 3870.5 3541.1 3867.35 3530.65 3864.16C3517.45 3860.53 3504.14 3856.24 3490.76 3851.25C3477.34 3846.26 3465.28 3839.77 3454.61 3831.86C3443.94 3823.9 3435.18 3814.04 3428.36 3802.27C3421.54 3790.46 3418.13 3775.95 3418.13 3758.72V3757.36C3418.13 3740.57 3421.43 3725.39 3428.03 3711.79C3434.59 3698.15 3443.72 3686.6 3455.31 3677.07C3466.89 3667.54 3480.53 3660.28 3496.22 3655.29C3511.88 3650.3 3528.6 3647.81 3546.34 3647.81C3569.04 3647.81 3592.02 3651.48 3615.19 3658.85C3638.37 3666.18 3659.52 3676.3 3678.58 3689.17L3645.88 3748.05C3628.58 3737.6 3611.09 3729.31 3593.38 3723.15C3575.64 3717.03 3559.28 3713.95 3544.29 3713.95C3528.38 3713.95 3515.99 3717.36 3507.11 3724.18C3498.24 3730.96 3493.84 3739.58 3493.84 3749.99V3751.38C3493.84 3757.73 3496.08 3763.3 3500.66 3768.03C3505.17 3772.79 3511.22 3777.12 3518.7 3780.97C3526.21 3784.82 3534.83 3788.45 3544.62 3791.86C3554.41 3795.27 3564.49 3798.53 3574.98 3801.72C3588.14 3805.79 3601.34 3810.56 3614.5 3816.02C3627.7 3821.45 3639.61 3828.15 3650.32 3836.07C3660.98 3844.03 3669.75 3853.67 3676.57 3865C3683.39 3876.33 3686.8 3890.15 3686.8 3906.5V3907.86C3686.8 3926.89 3683.39 3943.46 3676.57 3957.5C3669.75 3971.58 3660.29 3983.27 3648.26 3992.55C3636.2 4001.86 3622.01 4008.86 3605.66 4013.63C3589.27 4018.4 3571.79 4020.78 3553.16 4020.78Z" fill="#383838"/>
<path d="M3894.38 4021.48C3853.58 4021.48 3822.08 4008.97 3799.86 3983.97C3777.68 3958.97 3766.57 3925.31 3766.57 3883.04V3653.97H3849.76V3858.03C3849.76 3886.15 3856.4 3907.79 3869.67 3923C3882.98 3938.18 3901.79 3945.77 3926.13 3945.77C3950 3945.77 3969.39 3937.96 3984.28 3922.3C3999.12 3906.68 4006.57 3884.8 4006.57 3856.68V3653.97H4089.75V4013.96H4006.57V3957.46C3994.8 3974.91 3980.06 3989.91 3962.39 4002.52C3944.68 4015.17 3922.02 4021.48 3894.38 4021.48Z" fill="#383838"/>
<path d="M4198.17 3516.23H4281.32V4013.96H4198.17V3516.23Z" fill="#383838"/>
<path d="M4509.76 4020.08C4494.73 4020.08 4480.83 4018.29 4468 4014.66C4455.13 4011.03 4444.02 4005.09 4434.64 3996.91C4425.25 3988.74 4418.03 3977.96 4413.01 3964.54C4407.95 3951.12 4405.42 3934.4 4405.42 3914.42V3724.88H4359.74V3653.97H4405.42V3555.09H4488.6V3653.97H4585.43V3724.88H4488.6V3901.45C4488.6 3917.39 4492.45 3928.87 4500.19 3935.91C4507.93 3942.95 4518.85 3946.47 4532.93 3946.47C4550.67 3946.47 4567.72 3942.36 4584.07 3934.19V4001.68C4573.62 4007.62 4562.48 4012.17 4550.67 4015.32C4538.83 4018.51 4525.19 4020.08 4509.76 4020.08Z" fill="#383838"/>
<path d="M4669.31 3520.3H4758.62V3598.72H4669.31V3520.3ZM4672.72 3653.97H4755.87V4013.96H4672.72V3653.97Z" fill="#383838"/>
<path d="M4862.93 3653.97H4946.12V3710.43C4952.02 3701.74 4958.47 3693.61 4965.51 3686.02C4972.51 3678.46 4980.69 3671.68 4989.96 3665.74C4999.28 3659.77 5009.47 3655.07 5020.58 3651.63C5031.69 3648.18 5044.26 3646.46 5058.3 3646.46C5099.11 3646.46 5130.6 3658.96 5152.82 3683.96C5175 3708.97 5186.14 3742.59 5186.14 3784.86V4013.96H5102.96V3809.9C5102.96 3781.78 5096.29 3760.11 5083.01 3744.93C5069.7 3729.72 5050.9 3722.13 5026.55 3722.13C5002.69 3722.13 4983.29 3729.97 4968.44 3745.59C4953.56 3761.25 4946.12 3783.14 4946.12 3811.26V4013.96H4862.93L4862.93 3653.97Z" fill="#383838"/>
<path d="M5445.9 4124.43C5385.88 4124.43 5332.25 4110.24 5284.99 4081.9L5315.67 4020.08C5334.74 4031.93 5354.76 4041.24 5375.65 4048.06C5396.55 4054.88 5419.28 4058.29 5443.85 4058.29C5480.65 4058.29 5508.85 4048.9 5528.39 4030.2C5547.93 4011.47 5557.72 3983.82 5557.72 3947.27V3919.19C5542.73 3938.73 5525.2 3954.64 5505.22 3966.92C5485.2 3979.21 5460.42 3985.33 5430.9 3985.33C5409.53 3985.33 5389.07 3981.48 5369.53 3973.74C5349.99 3966.01 5332.58 3954.97 5317.36 3940.67C5302.15 3926.34 5289.97 3908.74 5280.88 3887.81C5271.79 3866.91 5267.24 3843.3 5267.24 3816.9V3815.54C5267.24 3789.18 5271.79 3765.43 5280.88 3744.31C5289.97 3723.15 5302.15 3705.45 5317.36 3691.11C5332.58 3676.81 5350.1 3665.78 5369.86 3658.04C5389.66 3650.31 5409.97 3646.46 5430.9 3646.46C5461.34 3646.46 5486.45 3652.47 5506.25 3664.53C5526.01 3676.56 5542.94 3691 5557.02 3707.83V3653.97H5639.51V3940.31C5639.51 4000.32 5624.3 4045.56 5593.83 4075.99C5577.48 4092.38 5556.91 4104.52 5532.13 4112.47C5507.35 4120.43 5478.6 4124.43 5445.9 4124.43ZM5452.72 3915.78C5466.8 3915.78 5480.32 3913.4 5493.27 3908.63C5506.24 3903.86 5517.5 3897.04 5527.03 3888.17C5536.56 3879.3 5544.19 3868.85 5549.87 3856.79C5555.56 3844.76 5558.38 3831.46 5558.38 3816.9V3815.54C5558.38 3800.55 5555.56 3787.02 5549.87 3775C5544.19 3762.93 5536.56 3752.48 5527.03 3743.61C5517.5 3734.74 5506.24 3727.92 5493.27 3723.15C5480.32 3718.39 5466.8 3716 5452.72 3716C5438.16 3716 5424.75 3718.39 5412.5 3723.15C5400.22 3727.92 5389.4 3734.63 5380.09 3743.28C5370.78 3751.9 5363.48 3762.27 5358.27 3774.3C5353.03 3786.36 5350.43 3799.85 5350.43 3814.88V3816.24C5350.43 3831.23 5353.18 3844.76 5358.61 3856.79C5364.07 3868.85 5371.33 3879.3 5380.42 3888.17C5389.51 3897.04 5400.33 3903.86 5412.83 3908.63C5425.33 3913.4 5438.6 3915.78 5452.72 3915.78Z" fill="#383838"/>
<path d="M2233.15 4645.76C2196.34 4645.76 2161.11 4639.49 2127.47 4627.03C2093.83 4614.53 2062.7 4595.32 2034.07 4569.4L2084.52 4509.38C2107.71 4529.4 2131.1 4544.76 2154.74 4555.43C2178.37 4566.09 2205.19 4571.45 2235.2 4571.45C2261.1 4571.45 2281.67 4565.99 2296.9 4555.1C2312.14 4544.17 2319.74 4529.62 2319.74 4511.43V4510.08C2319.74 4501.46 2318.26 4493.83 2315.31 4487.23C2312.34 4480.63 2306.88 4474.4 2298.9 4468.5C2290.93 4462.6 2279.98 4457.13 2266.09 4452.11C2252.17 4447.13 2234.06 4442.14 2211.74 4437.12C2186.22 4431.21 2163.54 4424.51 2143.73 4417.03C2123.91 4409.51 2107.27 4400.42 2093.83 4389.75C2080.38 4379.04 2070.13 4365.99 2063.07 4350.52C2055.99 4335.09 2052.48 4316.42 2052.48 4294.61V4293.25C2052.48 4272.8 2056.53 4254.06 2064.65 4237.01C2072.75 4219.96 2083.91 4205.41 2098.12 4193.39C2112.31 4181.32 2129.39 4171.9 2149.36 4165.08C2169.32 4158.26 2191.11 4154.85 2214.74 4154.85C2249.74 4154.85 2281.23 4159.95 2309.18 4170.18C2337.14 4180.41 2363.39 4195.29 2387.94 4214.83L2342.93 4278.26C2321.12 4262.35 2299.52 4250.21 2278.15 4241.78C2256.78 4233.38 2235.2 4229.17 2213.39 4229.17C2188.84 4229.17 2169.74 4234.63 2156.1 4245.52C2142.48 4256.44 2135.66 4269.86 2135.66 4285.77V4287.13C2135.66 4296.22 2137.24 4304.29 2140.45 4311.33C2143.62 4318.37 2149.43 4324.75 2157.86 4330.43C2166.29 4336.11 2177.92 4341.43 2192.73 4346.45C2207.54 4351.44 2226.35 4356.68 2249.13 4362.1C2274.19 4368.48 2296.41 4375.52 2315.77 4383.26C2335.14 4391 2351.2 4400.42 2363.96 4411.56C2376.72 4422.71 2386.41 4435.65 2393.01 4450.43C2399.61 4465.2 2402.93 4482.36 2402.93 4501.9V4503.26C2402.93 4525.55 2398.75 4545.53 2390.41 4563.27C2382.07 4580.98 2370.47 4595.98 2355.58 4608.26C2340.71 4620.54 2322.84 4629.85 2301.96 4636.23C2281.08 4642.57 2258.15 4645.76 2233.15 4645.76Z" fill="#383838"/>
<path d="M2712.49 4638.95V4594.62C2700.21 4609.18 2684.53 4621.46 2665.43 4631.43C2646.35 4641.44 2623.16 4646.46 2595.88 4646.46C2578.62 4646.46 2562.25 4644.04 2546.79 4639.28C2531.34 4634.51 2517.83 4627.47 2506.23 4618.16C2494.64 4608.85 2485.31 4597.26 2478.27 4583.37C2471.23 4569.51 2467.71 4553.49 2467.71 4535.3V4533.95C2467.71 4513.96 2471.34 4496.55 2478.62 4481.78C2485.88 4467.04 2496 4454.75 2508.96 4444.97C2521.92 4435.21 2537.35 4427.92 2555.32 4423.15C2573.28 4418.39 2592.71 4416 2613.61 4416C2635.44 4416 2653.96 4417.36 2669.19 4420.07C2684.41 4422.82 2699.07 4426.45 2713.17 4431V4424.18C2713.17 4399.17 2705.54 4380.07 2690.33 4366.91C2675.09 4353.71 2653.17 4347.11 2624.53 4347.11C2604.08 4347.11 2585.89 4349.17 2569.98 4353.27C2554.07 4357.34 2537.94 4362.81 2521.57 4369.62L2499.08 4303.48C2519.07 4294.39 2539.51 4287.13 2560.43 4281.67C2581.35 4276.21 2606.57 4273.49 2636.12 4273.49C2689.76 4273.49 2729.54 4286.77 2755.44 4313.38C2781.34 4339.96 2794.3 4377.36 2794.3 4425.53V4638.94L2712.49 4638.95ZM2532.48 4154.86L2607.49 4121.46L2679.75 4233.28H2615.66L2532.48 4154.86ZM2714.52 4488.26C2704.08 4484.16 2691.68 4480.75 2677.37 4478.04C2663.05 4475.32 2647.93 4473.93 2632.03 4473.93C2606.11 4473.93 2585.89 4478.95 2571.34 4488.96C2556.8 4498.93 2549.52 4512.57 2549.52 4529.84V4531.23C2549.52 4548.5 2556.23 4561.66 2569.63 4570.76C2583.05 4579.85 2599.53 4584.39 2619.07 4584.39C2632.71 4584.39 2645.32 4582.6 2656.91 4578.93C2668.51 4575.3 2678.61 4570.21 2687.27 4563.61C2695.88 4557.01 2702.59 4549.05 2707.38 4539.74C2712.14 4530.43 2714.52 4520.09 2714.52 4508.72V4488.26Z" fill="#383838"/>
<path d="M2892.49 4278.96H2975.67V4360.09C2987.02 4332.81 3003.17 4311 3024.07 4294.61C3044.98 4278.26 3071.34 4270.74 3103.17 4272.14V4359.39H3098.4C3080.22 4359.39 3063.63 4362.36 3048.61 4368.27C3033.62 4374.17 3020.66 4383.04 3009.75 4394.85C2998.84 4406.69 2990.43 4421.57 2984.53 4439.5C2978.62 4457.47 2975.67 4478.25 2975.67 4501.9V4638.94H2892.48L2892.49 4278.96Z" fill="#383838"/>
<path d="M3178.84 4141.22H3262.02V4638.95H3178.84V4141.22Z" fill="#383838"/>
<path d="M1688.1 475.577V16.2256C1688.1 7.24515 1680.76 -0.0834269 1671.78 0.000717421C746.988 8.75774 0 761.158 0 1688.02C0 2421.86 468.313 3046.23 1122.34 3278.84C1125.62 3280.01 1128.43 3282.2 1130.34 3285.1L1658.44 4653.24C1667.28 4666.62 1688.1 4660.37 1688.1 4644.34V2884.46C1688.1 2884.46 1660.49 2884.27 1648.15 2883.9C1004.71 2864.25 491.656 2336.33 491.656 1688.02C491.656 1032.63 1018.72 500.256 1672.08 491.683C1680.95 491.567 1688.1 484.441 1688.1 475.577Z" fill="url(#paint0_linear_27_3)"/>
<defs>
<linearGradient id="paint0_linear_27_3" x1="844.049" y1="-1302.06" x2="844.049" y2="6074.35" gradientUnits="userSpaceOnUse">
<stop stop-color="#E7267A"/>
<stop offset="1" stop-color="#64328A"/>
</linearGradient>
</defs>
</svg>
