<?xml version="1.0" standalone="no"?>
<!DOCTYPE svg PUBLIC "-//W3C//DTD SVG 20010904//EN"
 "http://www.w3.org/TR/2001/REC-SVG-20010904/DTD/svg10.dtd">
<svg version="1.0" xmlns="http://www.w3.org/2000/svg"
 width="512.000000pt" height="512.000000pt" viewBox="0 0 512.000000 512.000000"
 preserveAspectRatio="xMidYMid meet">
<metadata>
Created by potrace 1.14, written by Peter Selinger 2001-2017
</metadata>
<g transform="translate(0.000000,512.000000) scale(0.100000,-0.100000)"
fill="#000000" stroke="none">
<path d="M460 2590 l0 -1241 78 3 77 3 1 1043 c1 573 4 1045 7 1048 3 3 281
-272 618 -610 337 -339 617 -616 621 -616 10 0 1268 1255 1268 1264 0 9 -95
106 -104 106 -5 0 -267 -258 -583 -572 -316 -315 -579 -572 -584 -570 -5 1
-320 313 -699 692 -379 380 -692 690 -695 690 -3 0 -5 -558 -5 -1240z"/>
<path d="M4228 3762 l-38 -3 0 -662 0 -662 -465 465 -464 464 -22 -20 c-12
-10 -325 -322 -696 -691 -372 -370 -678 -673 -682 -673 -3 0 -247 241 -541
535 -294 294 -537 535 -541 535 -3 0 -5 -381 -5 -847 l1 -848 77 -2 78 -2 0
667 0 667 467 -468 467 -468 697 697 697 697 540 -541 c297 -298 542 -542 544
-542 3 0 4 382 4 849 l0 849 -40 4 c-23 1 -58 2 -78 0z"/>
<path d="M4564 3760 l-61 -5 -1 -1020 c0 -561 -1 -1032 -1 -1048 -1 -24 -80
52 -616 588 -338 338 -619 616 -624 617 -10 3 -1271 -1251 -1271 -1264 0 -4
23 -30 52 -58 l52 -51 581 581 581 580 702 -702 702 -703 0 1241 c0 1175 -1
1242 -17 1245 -10 2 -46 2 -79 -1z"/>
</g>
</svg>
