<?xml version="1.0" standalone="no"?>
<!DOCTYPE svg PUBLIC "-//W3C//DTD SVG 20010904//EN"
 "http://www.w3.org/TR/2001/REC-SVG-20010904/DTD/svg10.dtd">
<svg version="1.0" xmlns="http://www.w3.org/2000/svg"
 width="512.000000pt" height="512.000000pt" viewBox="0 0 512.000000 512.000000"
 preserveAspectRatio="xMidYMid meet">
<metadata>
Created by potrace 1.14, written by Peter Selinger 2001-2017
</metadata>
<g transform="translate(0.000000,512.000000) scale(0.100000,-0.100000)"
fill="#000000" stroke="none">
<path d="M497 3677 c-18 -18 -17 -20 19 -85 20 -37 44 -78 54 -92 9 -14 21
-36 28 -50 7 -14 23 -43 37 -65 14 -22 30 -49 35 -60 6 -11 14 -27 20 -35 5
-8 40 -67 76 -130 37 -63 72 -118 78 -122 6 -4 277 -8 601 -8 551 0 593 -2
630 -19 53 -24 76 -51 90 -108 27 -104 -26 -216 -125 -265 l-55 -27 -626 -1
c-485 0 -629 -3 -641 -12 -16 -13 -26 -42 -131 -378 -78 -247 -173 -549 -208
-657 -35 -110 -36 -127 -7 -140 31 -13 734 -12 746 2 10 10 27 62 122 363 38
121 56 162 68 164 9 1 154 2 322 3 168 1 345 5 393 9 205 16 355 59 507 147
37 21 130 99 165 138 79 89 139 199 174 316 19 66 23 84 36 161 16 91 21 264
10 339 -18 127 -86 273 -167 361 -115 124 -305 220 -498 249 -25 4 -54 10 -65
12 -11 3 -391 6 -844 7 -792 2 -826 1 -844 -17z"/>
<path d="M2655 3692 c6 -5 40 -29 76 -55 138 -96 234 -225 288 -384 20 -60 27
-90 40 -173 l6 -45 658 -1 c448 0 663 3 672 10 7 6 88 139 180 296 92 157 172
290 177 297 5 7 8 22 6 35 l-3 23 -1055 3 c-580 1 -1050 -2 -1045 -6z"/>
<path d="M3066 2818 c-3 -18 -8 -58 -11 -88 -15 -151 -77 -333 -151 -446 -13
-19 -14 -24 -3 -25 8 -1 219 -2 469 -3 352 -2 461 -5 481 -15 64 -31 64 -132
1 -161 -19 -8 -156 -12 -509 -11 l-483 0 -24 -22 c-13 -12 -83 -123 -156 -247
-73 -124 -141 -238 -152 -255 -52 -85 -56 -120 -13 -131 31 -8 1361 2 1405 10
206 39 290 68 380 128 149 99 234 271 305 613 76 373 -49 578 -405 661 -65 15
-146 18 -602 21 l-527 4 -5 -33z"/>
</g>
</svg>
